<mxfile host="Electron" agent="Mozilla/5.0 (Macintosh; Intel Mac OS X 10_15_7) AppleWebKit/537.36 (KHTML, like Gecko) draw.io/27.0.9 Chrome/134.0.6998.205 Electron/35.4.0 Safari/537.36" version="27.0.9" pages="2">
  <diagram name="Q42 Meta Model" id="cULiAE64kOLHnHZs_wdY">
    <mxGraphModel dx="1422" dy="823" grid="1" gridSize="10" guides="1" tooltips="1" connect="1" arrows="1" fold="1" page="1" pageScale="1" pageWidth="1169" pageHeight="827" math="0" shadow="0">
      <root>
        <mxCell id="0" />
        <mxCell id="1" parent="0" />
        <mxCell id="bslqSTpE_m5JZVY4g9k7-14" style="edgeStyle=orthogonalEdgeStyle;rounded=0;orthogonalLoop=1;jettySize=auto;html=1;entryX=0;entryY=0.5;entryDx=0;entryDy=0;endArrow=none;startFill=0;fontFamily=Roboto;shadow=1;" parent="1" source="bslqSTpE_m5JZVY4g9k7-1" target="bslqSTpE_m5JZVY4g9k7-3" edge="1">
          <mxGeometry relative="1" as="geometry" />
        </mxCell>
        <mxCell id="bslqSTpE_m5JZVY4g9k7-16" style="edgeStyle=orthogonalEdgeStyle;rounded=0;orthogonalLoop=1;jettySize=auto;html=1;endArrow=none;startFill=0;shadow=1;" parent="1" source="bslqSTpE_m5JZVY4g9k7-1" target="bslqSTpE_m5JZVY4g9k7-2" edge="1">
          <mxGeometry relative="1" as="geometry" />
        </mxCell>
        <mxCell id="bslqSTpE_m5JZVY4g9k7-1" value="&lt;font style=&quot;font-size: 14px;&quot;&gt;(top-level)&lt;/font&gt;&lt;div&gt;&lt;font style=&quot;font-size: 24px; color: rgb(204, 0, 102);&quot;&gt;&lt;b&gt;Property&lt;/b&gt;&lt;/font&gt;&lt;/div&gt;&lt;div&gt;&lt;font style=&quot;font-size: 14px;&quot;&gt;tag, label&lt;/font&gt;&lt;/div&gt;" style="rounded=0;whiteSpace=wrap;html=1;fillColor=light-dark(#dbf1fe, #ededed);fontFamily=Roboto;shadow=1;" parent="1" vertex="1">
          <mxGeometry x="560" y="120" width="160" height="80" as="geometry" />
        </mxCell>
        <mxCell id="bslqSTpE_m5JZVY4g9k7-10" style="rounded=0;orthogonalLoop=1;jettySize=auto;html=1;entryX=0;entryY=0.5;entryDx=0;entryDy=0;endArrow=none;startFill=0;fontFamily=Roboto;shadow=1;" parent="1" source="bslqSTpE_m5JZVY4g9k7-2" target="bslqSTpE_m5JZVY4g9k7-6" edge="1">
          <mxGeometry relative="1" as="geometry" />
        </mxCell>
        <mxCell id="bslqSTpE_m5JZVY4g9k7-13" style="edgeStyle=orthogonalEdgeStyle;rounded=0;orthogonalLoop=1;jettySize=auto;html=1;endArrow=none;startFill=0;fontFamily=Roboto;shadow=1;" parent="1" source="bslqSTpE_m5JZVY4g9k7-2" target="bslqSTpE_m5JZVY4g9k7-8" edge="1">
          <mxGeometry relative="1" as="geometry" />
        </mxCell>
        <mxCell id="bslqSTpE_m5JZVY4g9k7-15" style="edgeStyle=orthogonalEdgeStyle;rounded=0;orthogonalLoop=1;jettySize=auto;html=1;endArrow=none;startFill=0;fontFamily=Roboto;shadow=1;" parent="1" source="bslqSTpE_m5JZVY4g9k7-2" target="bslqSTpE_m5JZVY4g9k7-7" edge="1">
          <mxGeometry relative="1" as="geometry" />
        </mxCell>
        <mxCell id="bslqSTpE_m5JZVY4g9k7-2" value="&lt;div&gt;&lt;font style=&quot;font-size: 14px;&quot;&gt;(specific)&lt;/font&gt;&lt;/div&gt;&lt;font style=&quot;color: rgb(204, 0, 102); font-size: 28px;&quot;&gt;&lt;b style=&quot;&quot;&gt;Quality&lt;/b&gt;&lt;/font&gt;&lt;div&gt;&lt;font style=&quot;font-size: 14px;&quot;&gt;property&lt;/font&gt;&lt;/div&gt;" style="rounded=0;whiteSpace=wrap;html=1;fillColor=#DBF1FE;fontFamily=Roboto;shadow=1;" parent="1" vertex="1">
          <mxGeometry x="560" y="310" width="160" height="130" as="geometry" />
        </mxCell>
        <mxCell id="bslqSTpE_m5JZVY4g9k7-17" style="rounded=0;orthogonalLoop=1;jettySize=auto;html=1;endArrow=none;startFill=0;entryX=1;entryY=0.25;entryDx=0;entryDy=0;" parent="1" source="bslqSTpE_m5JZVY4g9k7-3" target="bslqSTpE_m5JZVY4g9k7-2" edge="1">
          <mxGeometry relative="1" as="geometry" />
        </mxCell>
        <mxCell id="bslqSTpE_m5JZVY4g9k7-3" value="&lt;font style=&quot;font-size: 22px; color: rgb(204, 0, 102);&quot;&gt;&lt;b style=&quot;&quot;&gt;Stakeholder&lt;/b&gt;&lt;/font&gt;" style="rounded=0;whiteSpace=wrap;html=1;fontFamily=Roboto;fillColor=#fff2cc;strokeColor=#d6b656;shadow=1;" parent="1" vertex="1">
          <mxGeometry x="881" y="120" width="160" height="80" as="geometry" />
        </mxCell>
        <mxCell id="bslqSTpE_m5JZVY4g9k7-11" style="edgeStyle=orthogonalEdgeStyle;rounded=0;orthogonalLoop=1;jettySize=auto;html=1;endArrow=none;startFill=0;fontFamily=Roboto;shadow=1;" parent="1" source="bslqSTpE_m5JZVY4g9k7-4" target="bslqSTpE_m5JZVY4g9k7-1" edge="1">
          <mxGeometry relative="1" as="geometry" />
        </mxCell>
        <mxCell id="bslqSTpE_m5JZVY4g9k7-12" style="rounded=0;orthogonalLoop=1;jettySize=auto;html=1;entryX=0;entryY=0.25;entryDx=0;entryDy=0;endArrow=none;startFill=0;fontFamily=Roboto;shadow=1;" parent="1" source="bslqSTpE_m5JZVY4g9k7-4" target="bslqSTpE_m5JZVY4g9k7-2" edge="1">
          <mxGeometry relative="1" as="geometry" />
        </mxCell>
        <mxCell id="bslqSTpE_m5JZVY4g9k7-4" value="&lt;font style=&quot;color: rgb(204, 0, 102);&quot;&gt;System- or&lt;/font&gt;&lt;div&gt;&lt;font style=&quot;color: rgb(204, 0, 102);&quot;&gt;Product&lt;/font&gt;&lt;/div&gt;&lt;div&gt;&lt;font style=&quot;color: rgb(204, 0, 102);&quot;&gt;Quality&lt;/font&gt;&lt;/div&gt;" style="rounded=0;whiteSpace=wrap;html=1;fontFamily=Roboto;fillColor=#f5f5f5;fontColor=#333333;strokeColor=#666666;fontSize=21;fontStyle=1;shadow=1;" parent="1" vertex="1">
          <mxGeometry x="200" y="120" width="160" height="80" as="geometry" />
        </mxCell>
        <mxCell id="bslqSTpE_m5JZVY4g9k7-6" value="&lt;div&gt;&lt;b style=&quot;color: rgb(204, 0, 102); background-color: transparent;&quot;&gt;&lt;font style=&quot;font-size: 25px;&quot;&gt;Example&lt;/font&gt;&lt;/b&gt;&lt;/div&gt;&lt;div&gt;&lt;font color=&quot;#cc0066&quot;&gt;&lt;b style=&quot;&quot;&gt;&lt;font style=&quot;font-size: 25px;&quot;&gt;Requirement&lt;/font&gt;&lt;br&gt;&lt;/b&gt;&lt;/font&gt;&lt;div&gt;&lt;font style=&quot;font-size: 14px;&quot;&gt;with metric /&lt;/font&gt;&lt;/div&gt;&lt;/div&gt;&lt;div&gt;&lt;font style=&quot;font-size: 14px;&quot;&gt;acceptance criterion&lt;/font&gt;&lt;/div&gt;" style="rounded=0;whiteSpace=wrap;html=1;fillColor=light-dark(#ceffcd, #ededed);fontFamily=Roboto;shadow=1;" parent="1" vertex="1">
          <mxGeometry x="881" y="310" width="160" height="130" as="geometry" />
        </mxCell>
        <mxCell id="bslqSTpE_m5JZVY4g9k7-7" value="&lt;font style=&quot;font-size: 21px; color: rgb(204, 0, 102);&quot;&gt;&lt;b style=&quot;&quot;&gt;Standard&lt;/b&gt;&lt;/font&gt;&lt;span style=&quot;font-size: 14px; background-color: transparent; color: light-dark(rgb(0, 0, 0), rgb(255, 255, 255));&quot;&gt;&lt;br&gt;e.g. ISO-25010&lt;/span&gt;" style="rounded=0;whiteSpace=wrap;html=1;fontFamily=Roboto;fillColor=#d0cee2;strokeColor=#56517e;shadow=1;" parent="1" vertex="1">
          <mxGeometry x="560" y="520" width="160" height="80" as="geometry" />
        </mxCell>
        <mxCell id="bslqSTpE_m5JZVY4g9k7-8" value="&lt;font style=&quot;font-size: 24px; color: rgb(204, 0, 102);&quot;&gt;&lt;b&gt;Approach&lt;/b&gt;&lt;/font&gt;&lt;div&gt;&lt;font style=&quot;font-size: 14px;&quot;&gt;Pattern, Tactic,&lt;/font&gt;&lt;/div&gt;&lt;div&gt;&lt;font style=&quot;font-size: 14px;&quot;&gt;Strategy&lt;/font&gt;&lt;/div&gt;" style="rounded=0;whiteSpace=wrap;html=1;fontFamily=Roboto;fillColor=#f8cecc;strokeColor=#b85450;shadow=1;" parent="1" vertex="1">
          <mxGeometry x="200" y="335" width="160" height="80" as="geometry" />
        </mxCell>
        <mxCell id="bslqSTpE_m5JZVY4g9k7-18" style="rounded=0;orthogonalLoop=1;jettySize=auto;html=1;endArrow=none;startFill=0;entryX=0.5;entryY=0;entryDx=0;entryDy=0;exitX=0.5;exitY=1;exitDx=0;exitDy=0;" parent="1" source="bslqSTpE_m5JZVY4g9k7-3" target="bslqSTpE_m5JZVY4g9k7-6" edge="1">
          <mxGeometry relative="1" as="geometry">
            <mxPoint x="925" y="210" as="sourcePoint" />
            <mxPoint x="771" y="345" as="targetPoint" />
          </mxGeometry>
        </mxCell>
        <mxCell id="bslqSTpE_m5JZVY4g9k7-20" value="&lt;p class=&quot;p1&quot; style=&quot;margin: 0px; font-variant-numeric: normal; font-variant-east-asian: normal; font-variant-alternates: normal; font-size-adjust: none; font-kerning: auto; font-optical-sizing: auto; font-feature-settings: normal; font-variation-settings: normal; font-variant-position: normal; font-variant-emoji: normal; font-stretch: normal; line-height: normal;&quot;&gt;&lt;font style=&quot;font-size: 14px;&quot;&gt;interesting for→&lt;/font&gt;&lt;/p&gt;" style="text;html=1;align=center;verticalAlign=middle;whiteSpace=wrap;rounded=0;fontFamily=Roboto;" parent="1" vertex="1">
          <mxGeometry x="730" y="130" width="130" height="30" as="geometry" />
        </mxCell>
        <mxCell id="bslqSTpE_m5JZVY4g9k7-21" value="&lt;p class=&quot;p1&quot; style=&quot;margin: 0px; font-variant-numeric: normal; font-variant-east-asian: normal; font-variant-alternates: normal; font-size-adjust: none; font-kerning: auto; font-optical-sizing: auto; font-feature-settings: normal; font-variation-settings: normal; font-variant-position: normal; font-variant-emoji: normal; font-stretch: normal; line-height: normal;&quot;&gt;&lt;font style=&quot;font-size: 14px;&quot;&gt;structured into →&lt;/font&gt;&lt;/p&gt;" style="text;html=1;align=center;verticalAlign=middle;whiteSpace=wrap;rounded=0;fontFamily=Roboto;" parent="1" vertex="1">
          <mxGeometry x="390" y="130" width="130" height="30" as="geometry" />
        </mxCell>
        <mxCell id="bslqSTpE_m5JZVY4g9k7-22" value="&lt;p class=&quot;p1&quot; style=&quot;margin: 0px; font-variant-numeric: normal; font-variant-east-asian: normal; font-variant-alternates: normal; font-size-adjust: none; font-kerning: auto; font-optical-sizing: auto; font-feature-settings: normal; font-variation-settings: normal; font-variant-position: normal; font-variant-emoji: normal; font-stretch: normal; line-height: normal;&quot;&gt;&lt;font style=&quot;font-size: 14px;&quot;&gt;described by →&lt;/font&gt;&lt;/p&gt;" style="text;html=1;align=center;verticalAlign=middle;whiteSpace=wrap;rounded=0;fontFamily=Roboto;rotation=30;" parent="1" vertex="1">
          <mxGeometry x="400" y="240" width="130" height="20" as="geometry" />
        </mxCell>
        <mxCell id="clB7HIuaLna0Y5BmBfF5-1" value="&lt;p class=&quot;p1&quot; style=&quot;margin: 0px; font-variant-numeric: normal; font-variant-east-asian: normal; font-variant-alternates: normal; font-size-adjust: none; font-kerning: auto; font-optical-sizing: auto; font-feature-settings: normal; font-variation-settings: normal; font-variant-position: normal; font-variant-emoji: normal; font-stretch: normal; line-height: normal;&quot;&gt;&lt;font style=&quot;font-size: 14px;&quot;&gt;specified by →&lt;/font&gt;&lt;/p&gt;" style="text;html=1;align=center;verticalAlign=middle;whiteSpace=wrap;rounded=0;fontFamily=Roboto;" vertex="1" parent="1">
          <mxGeometry x="740" y="370" width="130" height="30" as="geometry" />
        </mxCell>
        <mxCell id="clB7HIuaLna0Y5BmBfF5-2" value="&lt;p class=&quot;p1&quot; style=&quot;margin: 0px; font-variant-numeric: normal; font-variant-east-asian: normal; font-variant-alternates: normal; font-size-adjust: none; font-kerning: auto; font-optical-sizing: auto; font-feature-settings: normal; font-variation-settings: normal; font-variant-position: normal; font-variant-emoji: normal; font-stretch: normal; line-height: normal;&quot;&gt;&lt;font style=&quot;font-size: 14px;&quot;&gt;enables / improves →&lt;/font&gt;&lt;/p&gt;" style="text;html=1;align=center;verticalAlign=middle;whiteSpace=wrap;rounded=0;fontFamily=Roboto;" vertex="1" parent="1">
          <mxGeometry x="380" y="370" width="150" height="30" as="geometry" />
        </mxCell>
      </root>
    </mxGraphModel>
  </diagram>
  <diagram name="Q42 Meta Model - centered" id="bCCqn5V5VFbxqNnXiY7Y">
    <mxGraphModel dx="2591" dy="823" grid="1" gridSize="10" guides="1" tooltips="1" connect="1" arrows="1" fold="1" page="1" pageScale="1" pageWidth="1169" pageHeight="827" math="0" shadow="0">
      <root>
        <mxCell id="E7Qkh1qQ3fL24t5s4WqB-0" />
        <mxCell id="E7Qkh1qQ3fL24t5s4WqB-1" parent="E7Qkh1qQ3fL24t5s4WqB-0" />
        <mxCell id="E7Qkh1qQ3fL24t5s4WqB-2" style="edgeStyle=orthogonalEdgeStyle;rounded=0;orthogonalLoop=1;jettySize=auto;html=1;entryX=0;entryY=0.5;entryDx=0;entryDy=0;endArrow=none;startFill=0;fontFamily=Roboto;shadow=1;" edge="1" parent="E7Qkh1qQ3fL24t5s4WqB-1" source="E7Qkh1qQ3fL24t5s4WqB-4" target="E7Qkh1qQ3fL24t5s4WqB-10">
          <mxGeometry relative="1" as="geometry" />
        </mxCell>
        <mxCell id="E7Qkh1qQ3fL24t5s4WqB-3" style="edgeStyle=orthogonalEdgeStyle;rounded=0;orthogonalLoop=1;jettySize=auto;html=1;endArrow=none;startFill=0;shadow=1;" edge="1" parent="E7Qkh1qQ3fL24t5s4WqB-1" source="E7Qkh1qQ3fL24t5s4WqB-4" target="E7Qkh1qQ3fL24t5s4WqB-8">
          <mxGeometry relative="1" as="geometry" />
        </mxCell>
        <mxCell id="E7Qkh1qQ3fL24t5s4WqB-4" value="&lt;font style=&quot;font-size: 14px;&quot;&gt;(top-level)&lt;/font&gt;&lt;div&gt;&lt;font style=&quot;font-size: 24px; color: rgb(204, 0, 102);&quot;&gt;&lt;b&gt;Property&lt;/b&gt;&lt;/font&gt;&lt;/div&gt;&lt;div&gt;&lt;font style=&quot;font-size: 14px;&quot;&gt;tag, label&lt;/font&gt;&lt;/div&gt;" style="rounded=0;whiteSpace=wrap;html=1;fillColor=light-dark(#dbf1fe, #ededed);fontFamily=Roboto;shadow=1;" vertex="1" parent="E7Qkh1qQ3fL24t5s4WqB-1">
          <mxGeometry x="560" y="120" width="160" height="80" as="geometry" />
        </mxCell>
        <mxCell id="E7Qkh1qQ3fL24t5s4WqB-5" style="rounded=0;orthogonalLoop=1;jettySize=auto;html=1;entryX=0;entryY=0.5;entryDx=0;entryDy=0;endArrow=none;startFill=0;fontFamily=Roboto;shadow=1;" edge="1" parent="E7Qkh1qQ3fL24t5s4WqB-1" source="E7Qkh1qQ3fL24t5s4WqB-8" target="E7Qkh1qQ3fL24t5s4WqB-14">
          <mxGeometry relative="1" as="geometry" />
        </mxCell>
        <mxCell id="E7Qkh1qQ3fL24t5s4WqB-6" style="edgeStyle=orthogonalEdgeStyle;rounded=0;orthogonalLoop=1;jettySize=auto;html=1;endArrow=none;startFill=0;fontFamily=Roboto;shadow=1;" edge="1" parent="E7Qkh1qQ3fL24t5s4WqB-1" source="E7Qkh1qQ3fL24t5s4WqB-8" target="E7Qkh1qQ3fL24t5s4WqB-16">
          <mxGeometry relative="1" as="geometry" />
        </mxCell>
        <mxCell id="E7Qkh1qQ3fL24t5s4WqB-7" style="rounded=0;orthogonalLoop=1;jettySize=auto;html=1;endArrow=none;startFill=0;fontFamily=Roboto;shadow=1;" edge="1" parent="E7Qkh1qQ3fL24t5s4WqB-1" source="E7Qkh1qQ3fL24t5s4WqB-8" target="E7Qkh1qQ3fL24t5s4WqB-15">
          <mxGeometry relative="1" as="geometry" />
        </mxCell>
        <mxCell id="E7Qkh1qQ3fL24t5s4WqB-8" value="&lt;div&gt;&lt;font style=&quot;font-size: 14px;&quot;&gt;(specific)&lt;/font&gt;&lt;/div&gt;&lt;font style=&quot;color: rgb(204, 0, 102); font-size: 28px;&quot;&gt;&lt;b style=&quot;&quot;&gt;Quality&lt;/b&gt;&lt;/font&gt;&lt;div&gt;&lt;font style=&quot;font-size: 17px;&quot;&gt;property&lt;/font&gt;&lt;/div&gt;" style="rounded=0;whiteSpace=wrap;html=1;fillColor=#DBF1FE;fontFamily=Roboto;shadow=1;" vertex="1" parent="E7Qkh1qQ3fL24t5s4WqB-1">
          <mxGeometry x="280" y="461" width="160" height="130" as="geometry" />
        </mxCell>
        <mxCell id="E7Qkh1qQ3fL24t5s4WqB-10" value="&lt;font style=&quot;font-size: 22px; color: rgb(204, 0, 102);&quot;&gt;&lt;b style=&quot;&quot;&gt;Stakeholder&lt;/b&gt;&lt;/font&gt;" style="rounded=0;whiteSpace=wrap;html=1;fontFamily=Roboto;fillColor=#fff2cc;strokeColor=#d6b656;shadow=1;" vertex="1" parent="E7Qkh1qQ3fL24t5s4WqB-1">
          <mxGeometry x="858" y="120" width="160" height="80" as="geometry" />
        </mxCell>
        <mxCell id="E7Qkh1qQ3fL24t5s4WqB-11" style="edgeStyle=orthogonalEdgeStyle;rounded=0;orthogonalLoop=1;jettySize=auto;html=1;endArrow=none;startFill=0;fontFamily=Roboto;shadow=1;" edge="1" parent="E7Qkh1qQ3fL24t5s4WqB-1" source="E7Qkh1qQ3fL24t5s4WqB-13" target="E7Qkh1qQ3fL24t5s4WqB-4">
          <mxGeometry relative="1" as="geometry" />
        </mxCell>
        <mxCell id="E7Qkh1qQ3fL24t5s4WqB-12" style="rounded=0;orthogonalLoop=1;jettySize=auto;html=1;endArrow=none;startFill=0;fontFamily=Roboto;shadow=1;" edge="1" parent="E7Qkh1qQ3fL24t5s4WqB-1" source="E7Qkh1qQ3fL24t5s4WqB-13" target="E7Qkh1qQ3fL24t5s4WqB-8">
          <mxGeometry relative="1" as="geometry" />
        </mxCell>
        <mxCell id="E7Qkh1qQ3fL24t5s4WqB-13" value="&lt;font style=&quot;color: rgb(204, 0, 102);&quot;&gt;System- or&lt;/font&gt;&lt;div&gt;&lt;font style=&quot;color: rgb(204, 0, 102);&quot;&gt;Product&lt;/font&gt;&lt;/div&gt;&lt;div&gt;&lt;font style=&quot;color: rgb(204, 0, 102); font-size: 28px;&quot;&gt;Quality&lt;/font&gt;&lt;/div&gt;" style="rounded=0;whiteSpace=wrap;html=1;fontFamily=Roboto;fillColor=#f5f5f5;fontColor=#333333;strokeColor=#666666;fontSize=21;fontStyle=1;shadow=1;" vertex="1" parent="E7Qkh1qQ3fL24t5s4WqB-1">
          <mxGeometry x="560" y="256" width="160" height="90" as="geometry" />
        </mxCell>
        <mxCell id="E7Qkh1qQ3fL24t5s4WqB-14" value="&lt;div&gt;&lt;b style=&quot;color: rgb(204, 0, 102); background-color: transparent;&quot;&gt;&lt;font style=&quot;font-size: 25px;&quot;&gt;Example&lt;/font&gt;&lt;/b&gt;&lt;/div&gt;&lt;div&gt;&lt;font color=&quot;#cc0066&quot;&gt;&lt;b style=&quot;&quot;&gt;&lt;font style=&quot;font-size: 25px;&quot;&gt;Requirement&lt;/font&gt;&lt;br&gt;&lt;/b&gt;&lt;/font&gt;&lt;div&gt;&lt;font style=&quot;font-size: 14px;&quot;&gt;with metric /&lt;/font&gt;&lt;/div&gt;&lt;/div&gt;&lt;div&gt;&lt;font style=&quot;font-size: 14px;&quot;&gt;acceptance criterion&lt;/font&gt;&lt;/div&gt;" style="rounded=0;whiteSpace=wrap;html=1;fillColor=light-dark(#ceffcd, #ededed);fontFamily=Roboto;shadow=1;" vertex="1" parent="E7Qkh1qQ3fL24t5s4WqB-1">
          <mxGeometry x="858" y="461" width="160" height="130" as="geometry" />
        </mxCell>
        <mxCell id="E7Qkh1qQ3fL24t5s4WqB-15" value="&lt;font style=&quot;font-size: 21px; color: rgb(204, 0, 102);&quot;&gt;&lt;b style=&quot;&quot;&gt;Standard&lt;/b&gt;&lt;/font&gt;&lt;span style=&quot;font-size: 14px; background-color: transparent; color: light-dark(rgb(0, 0, 0), rgb(255, 255, 255));&quot;&gt;&lt;br&gt;e.g. ISO-25010&lt;/span&gt;" style="rounded=0;whiteSpace=wrap;html=1;fontFamily=Roboto;fillColor=#d0cee2;strokeColor=#56517e;shadow=1;" vertex="1" parent="E7Qkh1qQ3fL24t5s4WqB-1">
          <mxGeometry x="560" y="410" width="160" height="80" as="geometry" />
        </mxCell>
        <mxCell id="E7Qkh1qQ3fL24t5s4WqB-16" value="&lt;font style=&quot;font-size: 24px; color: rgb(204, 0, 102);&quot;&gt;&lt;b&gt;Approach&lt;/b&gt;&lt;/font&gt;&lt;div&gt;&lt;font style=&quot;font-size: 14px;&quot;&gt;Pattern, Tactic,&lt;/font&gt;&lt;/div&gt;&lt;div&gt;&lt;font style=&quot;font-size: 14px;&quot;&gt;Strategy&lt;/font&gt;&lt;/div&gt;" style="rounded=0;whiteSpace=wrap;html=1;fontFamily=Roboto;fillColor=#f8cecc;strokeColor=#b85450;shadow=1;" vertex="1" parent="E7Qkh1qQ3fL24t5s4WqB-1">
          <mxGeometry x="-50" y="486" width="160" height="80" as="geometry" />
        </mxCell>
        <mxCell id="E7Qkh1qQ3fL24t5s4WqB-17" style="rounded=0;orthogonalLoop=1;jettySize=auto;html=1;endArrow=none;startFill=0;entryX=0.5;entryY=0;entryDx=0;entryDy=0;exitX=0.5;exitY=1;exitDx=0;exitDy=0;" edge="1" parent="E7Qkh1qQ3fL24t5s4WqB-1" source="E7Qkh1qQ3fL24t5s4WqB-10" target="E7Qkh1qQ3fL24t5s4WqB-14">
          <mxGeometry relative="1" as="geometry">
            <mxPoint x="883" y="210" as="sourcePoint" />
            <mxPoint x="729" y="345" as="targetPoint" />
          </mxGeometry>
        </mxCell>
        <mxCell id="E7Qkh1qQ3fL24t5s4WqB-18" value="&lt;p class=&quot;p1&quot; style=&quot;margin: 0px; font-variant-numeric: normal; font-variant-east-asian: normal; font-variant-alternates: normal; font-size-adjust: none; font-kerning: auto; font-optical-sizing: auto; font-feature-settings: normal; font-variation-settings: normal; font-variant-position: normal; font-variant-emoji: normal; font-stretch: normal; line-height: normal;&quot;&gt;&lt;font style=&quot;font-size: 14px;&quot;&gt;interesting for→&lt;/font&gt;&lt;/p&gt;" style="text;html=1;align=center;verticalAlign=middle;whiteSpace=wrap;rounded=0;fontFamily=Roboto;" vertex="1" parent="E7Qkh1qQ3fL24t5s4WqB-1">
          <mxGeometry x="727" y="130" width="130" height="30" as="geometry" />
        </mxCell>
        <mxCell id="E7Qkh1qQ3fL24t5s4WqB-19" value="&lt;p class=&quot;p1&quot; style=&quot;margin: 0px; font-variant-numeric: normal; font-variant-east-asian: normal; font-variant-alternates: normal; font-size-adjust: none; font-kerning: auto; font-optical-sizing: auto; font-feature-settings: normal; font-variation-settings: normal; font-variant-position: normal; font-variant-emoji: normal; font-stretch: normal; line-height: normal;&quot;&gt;&lt;font style=&quot;font-size: 14px;&quot;&gt;structured into →&lt;/font&gt;&lt;/p&gt;" style="text;html=1;align=center;verticalAlign=middle;whiteSpace=wrap;rounded=0;fontFamily=Roboto;" vertex="1" parent="E7Qkh1qQ3fL24t5s4WqB-1">
          <mxGeometry x="390" y="130" width="130" height="30" as="geometry" />
        </mxCell>
        <mxCell id="E7Qkh1qQ3fL24t5s4WqB-20" value="&lt;p class=&quot;p1&quot; style=&quot;margin: 0px; font-variant-numeric: normal; font-variant-east-asian: normal; font-variant-alternates: normal; font-size-adjust: none; font-kerning: auto; font-optical-sizing: auto; font-feature-settings: normal; font-variation-settings: normal; font-variant-position: normal; font-variant-emoji: normal; font-stretch: normal; line-height: normal;&quot;&gt;&lt;font style=&quot;font-size: 14px;&quot;&gt;describes →&lt;/font&gt;&lt;/p&gt;" style="text;html=1;align=center;verticalAlign=middle;whiteSpace=wrap;rounded=0;fontFamily=Roboto;rotation=321;" vertex="1" parent="E7Qkh1qQ3fL24t5s4WqB-1">
          <mxGeometry x="430" y="390" width="130" height="20" as="geometry" />
        </mxCell>
        <mxCell id="E7Qkh1qQ3fL24t5s4WqB-21" value="&lt;p class=&quot;p1&quot; style=&quot;margin: 0px; font-variant-numeric: normal; font-variant-east-asian: normal; font-variant-alternates: normal; font-size-adjust: none; font-kerning: auto; font-optical-sizing: auto; font-feature-settings: normal; font-variation-settings: normal; font-variant-position: normal; font-variant-emoji: normal; font-stretch: normal; line-height: normal;&quot;&gt;&lt;font style=&quot;font-size: 14px;&quot;&gt;specified by →&lt;/font&gt;&lt;/p&gt;" style="text;html=1;align=center;verticalAlign=middle;whiteSpace=wrap;rounded=0;fontFamily=Roboto;" vertex="1" parent="E7Qkh1qQ3fL24t5s4WqB-1">
          <mxGeometry x="575" y="524" width="130" height="30" as="geometry" />
        </mxCell>
        <mxCell id="E7Qkh1qQ3fL24t5s4WqB-22" value="&lt;p class=&quot;p1&quot; style=&quot;margin: 0px; font-variant-numeric: normal; font-variant-east-asian: normal; font-variant-alternates: normal; font-size-adjust: none; font-kerning: auto; font-optical-sizing: auto; font-feature-settings: normal; font-variation-settings: normal; font-variant-position: normal; font-variant-emoji: normal; font-stretch: normal; line-height: normal;&quot;&gt;&lt;font style=&quot;font-size: 14px;&quot;&gt;enables / improves →&lt;/font&gt;&lt;/p&gt;" style="text;html=1;align=center;verticalAlign=middle;whiteSpace=wrap;rounded=0;fontFamily=Roboto;" vertex="1" parent="E7Qkh1qQ3fL24t5s4WqB-1">
          <mxGeometry x="120" y="497" width="150" height="30" as="geometry" />
        </mxCell>
        <mxCell id="8TkiiC5X1mZdVFHcJJXl-0" style="rounded=0;orthogonalLoop=1;jettySize=auto;html=1;endArrow=none;startFill=0;fontFamily=Roboto;shadow=1;exitX=1;exitY=0.25;exitDx=0;exitDy=0;entryX=0.25;entryY=1;entryDx=0;entryDy=0;" edge="1" parent="E7Qkh1qQ3fL24t5s4WqB-1" source="E7Qkh1qQ3fL24t5s4WqB-15" target="E7Qkh1qQ3fL24t5s4WqB-10">
          <mxGeometry relative="1" as="geometry">
            <mxPoint x="650" y="276" as="sourcePoint" />
            <mxPoint x="650" y="210" as="targetPoint" />
          </mxGeometry>
        </mxCell>
        <mxCell id="8TkiiC5X1mZdVFHcJJXl-2" value="&lt;p class=&quot;p1&quot; style=&quot;margin: 0px; font-variant-numeric: normal; font-variant-east-asian: normal; font-variant-alternates: normal; font-size-adjust: none; font-kerning: auto; font-optical-sizing: auto; font-feature-settings: normal; font-variation-settings: normal; font-variant-position: normal; font-variant-emoji: normal; font-stretch: normal; line-height: normal;&quot;&gt;&lt;font style=&quot;font-size: 14px;&quot;&gt;compliance&lt;/font&gt;&lt;/p&gt;&lt;p class=&quot;p1&quot; style=&quot;margin: 0px; font-variant-numeric: normal; font-variant-east-asian: normal; font-variant-alternates: normal; font-size-adjust: none; font-kerning: auto; font-optical-sizing: auto; font-feature-settings: normal; font-variation-settings: normal; font-variant-position: normal; font-variant-emoji: normal; font-stretch: normal; line-height: normal;&quot;&gt;&lt;font style=&quot;font-size: 14px;&quot;&gt;required by&lt;/font&gt;&lt;span style=&quot;font-size: 14px; background-color: transparent; color: light-dark(rgb(0, 0, 0), rgb(255, 255, 255));&quot;&gt;&amp;nbsp;&lt;/span&gt;&lt;span style=&quot;font-size: 14px; background-color: transparent; color: light-dark(rgb(0, 0, 0), rgb(255, 255, 255));&quot;&gt;→&lt;/span&gt;&lt;/p&gt;" style="text;html=1;align=center;verticalAlign=middle;whiteSpace=wrap;rounded=0;fontFamily=Roboto;rotation=309;" vertex="1" parent="E7Qkh1qQ3fL24t5s4WqB-1">
          <mxGeometry x="710" y="300" width="130" height="30" as="geometry" />
        </mxCell>
        <mxCell id="8TkiiC5X1mZdVFHcJJXl-4" value="&lt;p class=&quot;p1&quot; style=&quot;margin: 0px; font-variant-numeric: normal; font-variant-east-asian: normal; font-variant-alternates: normal; font-size-adjust: none; font-kerning: auto; font-optical-sizing: auto; font-feature-settings: normal; font-variation-settings: normal; font-variant-position: normal; font-variant-emoji: normal; font-stretch: normal; line-height: normal;&quot;&gt;&lt;font style=&quot;font-size: 14px;&quot;&gt;&amp;nbsp;contained in&amp;nbsp;&lt;/font&gt;&lt;span style=&quot;font-size: 14px; background-color: transparent; color: light-dark(rgb(0, 0, 0), rgb(255, 255, 255));&quot;&gt;&amp;nbsp;&lt;/span&gt;&lt;span style=&quot;font-size: 14px; background-color: transparent; color: light-dark(rgb(0, 0, 0), rgb(255, 255, 255));&quot;&gt;→&lt;/span&gt;&lt;/p&gt;" style="text;html=1;align=center;verticalAlign=middle;whiteSpace=wrap;rounded=0;fontFamily=Roboto;rotation=345;" vertex="1" parent="E7Qkh1qQ3fL24t5s4WqB-1">
          <mxGeometry x="439.63" y="466.68" width="115" height="20" as="geometry" />
        </mxCell>
        <mxCell id="8TkiiC5X1mZdVFHcJJXl-5" value="&lt;p class=&quot;p1&quot; style=&quot;margin: 0px; font-variant-numeric: normal; font-variant-east-asian: normal; font-variant-alternates: normal; font-size-adjust: none; font-kerning: auto; font-optical-sizing: auto; font-feature-settings: normal; font-variation-settings: normal; font-variant-position: normal; font-variant-emoji: normal; font-stretch: normal; line-height: normal;&quot;&gt;&lt;font style=&quot;font-size: 14px;&quot;&gt;ensure understanding&amp;nbsp;&lt;/font&gt;&lt;span style=&quot;font-size: 14px; background-color: transparent; color: light-dark(rgb(0, 0, 0), rgb(255, 255, 255));&quot;&gt;→&lt;/span&gt;&lt;/p&gt;" style="text;html=1;align=center;verticalAlign=middle;whiteSpace=wrap;rounded=0;fontFamily=Roboto;rotation=-90;" vertex="1" parent="E7Qkh1qQ3fL24t5s4WqB-1">
          <mxGeometry x="890" y="330" width="130" height="30" as="geometry" />
        </mxCell>
      </root>
    </mxGraphModel>
  </diagram>
</mxfile>
